<?xml version="1.0" encoding="utf-8"?>
<!-- Generator: Adobe Illustrator 27.9.0, SVG Export Plug-In . SVG Version: 6.00 Build 0)  -->
<svg version="1.1" id="Layer_1" xmlns="http://www.w3.org/2000/svg" xmlns:xlink="http://www.w3.org/1999/xlink" x="0px" y="0px"
	 viewBox="0 0 1000 1000" style="enable-background:new 0 0 1000 1000;" xml:space="preserve">
<style type="text/css">
	.st0{fill:#2A7DE1;}
</style>
<path class="st0" d="M472.14,8.19L28.42,300.44c-14.23,9.37-22.79,25.26-22.79,42.3v606.77c0,27.97,22.68,50.65,50.65,50.65h287.01
	l57-327.62c-46.75-31.85-77.49-85.46-77.62-146.27c-0.19-93.33,74.43-172.48,167.63-177.44c102.33-5.45,187.02,75.92,187.02,177.06
	c0,60.96-30.77,114.72-77.62,146.64l57,327.62h287.01c27.97,0,50.65-22.68,50.65-50.65V342.74c0-17.03-8.56-32.93-22.79-42.3
	L527.86,8.19C510.96-2.95,489.04-2.95,472.14,8.19z"/>
</svg>
